<?xml version="1.0" encoding="UTF-8" standalone="no"?>
<!DOCTYPE svg PUBLIC "-//W3C//DTD SVG 1.1//EN" "http://www.w3.org/Graphics/SVG/1.1/DTD/svg11.dtd">
<svg width="100%" height="100%" viewBox="0 0 512 512" version="1.1" xmlns="http://www.w3.org/2000/svg" xmlns:xlink="http://www.w3.org/1999/xlink" xml:space="preserve" xmlns:serif="http://www.serif.com/" style="fill-rule:evenodd;clip-rule:evenodd;">
    <path d="M512,80L512,432C512,476.153 476.153,512 432,512L80,512C35.847,512 0,476.153 0,432L0,80C0,35.847 35.847,0 80,0L432,0C476.153,0 512,35.847 512,80Z" style="fill:white;"/>
    <g transform="matrix(6.90625,0,0,6.90625,-132.281352,-41.96875)">
        <g transform="matrix(1,0,0,1,21,11)">
            <rect x="26" y="54" width="30" height="10" style="fill:rgb(0,61,165);"/>
        </g>
        <g transform="matrix(1,0,0,1,21,11)">
            <path d="M60,0.579L60,60.421C60,60.74 59.74,61 59.421,61L22.579,61C22.26,61 22,60.74 22,60.421L22,0.579C22,0.26 22.26,0 22.579,0L59.421,0C59.74,0 60,0.26 60,0.579Z" style="fill:rgb(0,61,165);"/>
        </g>
        <g transform="matrix(1,0,0,1,21,11)">
            <path d="M54,6.434L54,25.566C54,25.805 53.805,26 53.566,26L28.434,26C28.195,26 28,25.805 28,25.566L28,6.434C28,6.195 28.195,6 28.434,6L53.566,6C53.805,6 54,6.195 54,6.434Z" style="fill:white;"/>
        </g>
        <g transform="matrix(1,0,0,1,21,11)">
            <path d="M23,7C21.42,7.767 18,11.497 18,15.674L18,55.874C18,66.652 -5.846,65.449 8.564,43.436C12.089,38.051 15.401,30.985 18,19.873" style="fill:none;fill-rule:nonzero;stroke:rgb(0,61,165);stroke-width:3px;"/>
        </g>
        <g transform="matrix(1,0,0,1,21,11)">
            <path d="M18,14L23,6L23,21L18,21L18,14Z" style="fill:rgb(0,61,165);fill-rule:nonzero;"/>
        </g>
    </g>
    <g id="path3015" transform="matrix(0.615432,0,0,0.615432,234.500001,248.850164)">
        <path d="M182.758,203.555C187.564,196.408 187.154,180.763 177.546,175.24C170.196,171.565 161.895,173.003 158.016,176.167C151.773,179.944 145.759,192.021 145.759,204.252L167.319,204.225L167.313,228.3L122.566,228.276C123.152,240.659 129.904,250.578 142.47,256.101C140.852,261.32 133.274,271.956 122.868,271.236C120.814,282.491 118.861,288.81 109.504,299.037C100.141,288.813 98.189,282.491 96.134,271.236C85.728,271.956 78.15,261.32 76.533,256.101C89.098,250.578 95.85,240.659 96.436,228.276L51.686,228.3L51.686,204.225L73.24,204.252C73.24,192.021 67.236,179.944 60.986,176.167C57.107,173.006 48.809,171.568 41.462,175.24C31.848,180.763 31.435,196.411 36.241,203.555C-9.158,195.125 -4.655,151.281 10.811,135.364C23.311,122.505 36.938,120.496 47.446,124.551C71.327,133.112 87.388,161.64 88.168,204.252L100.656,204.252C100.656,165.515 93.916,153.165 76.353,104.512C67.508,81.52 72.822,53.093 88.635,26.919C94.298,17.538 101.373,9.07 109.504,0C117.629,9.07 124.704,17.538 130.368,26.919C146.181,53.093 151.494,81.52 142.655,104.512C125.084,153.165 118.344,165.512 118.344,204.252L130.831,204.252C131.612,161.64 147.679,133.112 171.554,124.551C182.062,120.499 195.698,122.505 208.191,135.364C223.654,151.281 228.158,195.125 182.758,203.555L182.758,203.555Z" style="fill:white;fill-rule:nonzero;"/>
    </g>
</svg>
