<?xml version="1.0" encoding="UTF-8"?> <svg xmlns="http://www.w3.org/2000/svg" xmlns:xlink="http://www.w3.org/1999/xlink" viewBox="0 0 6978.79 6948"> <defs> <style> .a { fill: url(#a); } .b { fill: #004280; } .b, .c { fill-rule: evenodd; } .c, .d { fill: #fff; } </style> <linearGradient id="a" data-name="GradientFill 1" x1="3489.4" y1="6876.96" x2="3489.4" y2="140.34" gradientUnits="userSpaceOnUse"> <stop offset="0" stop-color="#ef463e"></stop> <stop offset="0.6" stop-color="#cc2a30"></stop> <stop offset="0.66" stop-color="#efcf3b"></stop> <stop offset="1" stop-color="#fd0"></stop> </linearGradient> </defs> <title>logo-belisle</title> <g> <rect class="a" width="6978.79" height="6948"></rect> <path class="b" d="M3996,2418.38v380.93l-88.79,149.29V2568L3996,2418.38Zm-1403.49,874c35.8,0,66.23-12.53,91.29-37.95,25.42-25.06,38-55.49,38-91.29V1993.83c0-35.8-12.53-66.23-38-91.29-25.06-25.42-55.49-37.95-91.29-37.95H1948.09V3292.35ZM4939.2,2095.86l169.7-285.7H4883l-169.7,285.7Zm100.24,336.91-169.7,285.7h352.65c41.17,0,73-13.61,95.95-41.17,22.2-26.85,33.65-60.86,33.65-101.68s-11.46-74.83-33.65-101.68c-22.91-27.57-54.78-41.17-95.95-41.17Zm308.42-520L5239.74,2095c32.94-3.22,59.07-16.83,78.41-40.46,22.56-26.85,33.65-60.86,33.65-101.68,0-14-1.07-27.57-3.94-40.1Zm-218-518.46,339.76-572.83h-300l-339.76,572.83H4603.93l339.76-572.83h-300l-339.76,572.83H3996v518.77l-88.79,149.29V1717.6q0-154.13-108.12-254.19-95.05-87.54-215.17-87.71L834.71,1380V5683.72h923.69L1472,6165.61h300l286.41-481.89h225.91l-286.42,481.89h300l286.42-481.89h225.91l-286.41,481.89h300l286.41-481.89h2478.2q244.35,0,407.78-167.55c109.2-112.42,163.61-253.12,163.61-423.18l.36-1348.65q0-211.05-146.07-372.34-160.57-178.29-407.07-177.93H4587.46l17.54-29.36H5809q164.87,0,260.28-87.71,87.54-81.09,87.71-200.85l.36-471.51v-1.43c-2.51-78-29-143.92-79.48-196.91-2.15-2.15-3.94-4.3-6.09-6.44a309.81,309.81,0,0,0,26.13-26.85q66.05-77.87,65.88-188.67V1725.48c0-111.7-41.17-198.7-123.87-260.28q-95.06-70.89-220.9-70.89H5655.79l339.76-572.83h-300l-339.76,572.83ZM4709,2483.71v-50.84h30.07L4709,2483.71Zm-629.92,681H4305l-17.54,29.36H4061.57l17.54-29.36Zm-290.36,488.88h225.91l-273.53,461.13h300l273.53-461.13h388.81q117.07,0,193,83.78c46.9,51.91,70.17,111,70.17,177.93v938.36q0,128.35-79.48,209.8-77.87,80-196.91,79.84h-2741V3653.59H2962.8l-273.53,461.13h300l273.53-461.13h225.91l-273.53,461.13h300Z"></path> <path class="c" d="M3835.47,1717.77c0-177.16-142.79-270.4-251.75-270.4l-2677.41,4.26V5612h4682.1c284,0,499.86-216.15,499.86-518.91V3756.71c6.67-229.95-173.52-491.14-481.21-491.14H3835.47V1717.77ZM1877.65,3582h2825.7c214.14,0,339.54,181.76,334.9,341.79v930c0,210.7-150.23,361.12-347.88,361.12H1877.65V3582Zm714.87-218h-716V1793h716a200.77,200.77,0,0,1,200.85,200.85V3163.11A200.77,200.77,0,0,1,2592.52,3364Zm2045-1196.49v-428.9h585.06c268,0,268,428.9,0,428.9Zm-.09,622.6v-428.9H5222.5c268,0,268,428.9,0,428.9Zm1253.91-597.9c103.76,7.14,190.35,90.5,194.45,213.51l-.28,470.46c0,105.53-80.4,217-276.39,217H4067.47V1465.78H5819.18c110.55,0,273.1,65.33,273.1,259.59v258.81C6092.09,2087.35,6028.33,2192.17,5891.34,2192.17Z"></path> <g> <rect class="d" x="3359.06" y="4288" width="95.23" height="96.67"></rect> <rect class="d" x="3356.61" y="4498.87" width="96.66" height="587.51"></rect> <path class="c" d="M4656,5072.43v-89.49h-12.83v89.49Zm-713.09-446.12c-10.38-39.74-29.72-72-58.36-97.38q-63.91-56.39-178.65-56.57-117.61,0-182.95,56.21c-19,16.83-33.65,36.16-43.68,58.36a156.75,156.75,0,0,0-14,65.16c0,28.64,6.8,54.06,20.41,77,14.32,24,35.8,43.68,64.08,59.43h.36a167.48,167.48,0,0,0,29.71,13.6c15.39,5.37,38.31,11.81,69.1,18.62l119.22,26.13c48.69,10.74,73.39,32.94,73.39,66.23,0,20.41-9.31,38-27.21,52.63-24,19.69-59.07,29.36-106,29.36-49.41,0-85.57-10-109.2-30.43-21.12-18.26-32.58-45.47-35.09-81.27l-.72-13.6-113.85-1.43,1.43,15.75q8.06,96.66,70.89,149.65,66.05,56.39,186.53,56.57,117.07,0,184-58a177.3,177.3,0,0,0,45.11-59.79c2.15-4.3,3.58-8.59,5.37-12.89v123.16h107.76V4793.85q4.46,135.18,96.28,221.68,79.39,74.78,203.87,74.78,101,0,171.24-49.52,67.15-47.33,92.69-129.54l5.77-18.57H4506.66l-3.66,8.85q-17.33,41.94-54.74,66-39.6,25.43-93.85,25.43-79.53,0-129.14-50.49-48.2-49.05-52.65-131.38h452.82l.88-36.18v-.17q0-70.94-21.76-129.58-21-56.47-60.36-97.2a257.94,257.94,0,0,0-90.5-60.58q-51.61-20.69-111.11-20.69-60.73,0-114,21.63a270.22,270.22,0,0,0-93.13,62.5q-40.64,41.76-62.37,99-20.32,53.46-22.36,116.05V4272.59H3942.92v353.72Zm232,88.09q9.3-65.79,53.9-108.27,47.2-45,112.39-45,65.81,0,112.07,45.24,43.46,42.5,51,108Zm509.81,358V5002.7l44.86,69.73h12.28v-89.49H4729.1v67.78l-43.93-67.78h-13.29v89.49Zm-741.95-377.33v153.59a143.37,143.37,0,0,0-26.85-44.75c-26.85-30.43-67.31-51.91-121-64.44l-144.28-30.79c-28.64-7.16-48.69-16.83-60.51-29.36-8.59-9-12.89-20.41-12.89-34,0-19,8.59-35.44,26.14-49.76,22.55-18.26,55.49-27.57,98.81-27.57,46.18,0,82.34,11.82,108.48,35.09,22.91,20.76,34.37,46.54,34.37,77.69v14.32Z"></path> <rect class="d" x="3183.3" y="4281.2" width="107.76" height="810.19"></rect> <polygon class="c" points="2772.12 4396.46 2844.2 4450.52 3029.95 4296.91 2938.18 4205.13 2772.12 4396.46"></polygon> <path class="c" d="M2028.54,5069.19h369.82q46.79,0,86.94-15.63a198.24,198.24,0,0,0,68.3-44,194.91,194.91,0,0,0,44.27-67.14,223.38,223.38,0,0,0,15.52-77.83q20.66,88.25,87.2,150.93,79.39,74.78,203.86,74.78,101,0,171.24-49.52,67.15-47.33,92.69-129.54l5.77-18.57H3060.29l-3.66,8.85q-17.33,41.94-54.74,66-39.6,25.43-93.85,25.43-79.54,0-129.14-50.49-48.2-49.05-52.65-131.38h452.82l.88-36.18v-.17q0-70.94-21.76-129.58-21-56.47-60.36-97.2a258,258,0,0,0-90.5-60.58q-51.61-20.69-111.11-20.69-60.73,0-114,21.63a270.23,270.23,0,0,0-93.13,62.5q-40.64,41.76-62.37,99-22.59,59.45-22.59,130.19,0,6.23.18,12.36a195,195,0,0,0-31.39-61.9q-32.9-43.58-88.14-67.83a173.38,173.38,0,0,0,52.72-50.39q30.62-44.82,30.62-101a187.55,187.55,0,0,0-14.3-73.06,174.36,174.36,0,0,0-42.6-61.09q-60.59-56.38-163.25-56.38H2028.54v748.57Zm700-354.79q9.3-65.79,53.9-108.27,47.2-45,112.39-45,65.81,0,112.07,45.24,43.47,42.5,51,108Zm-597-88.79V4418.44l194.59-1.25q68.12,0,102.68,31.53,30.27,27.6,30.27,74.87,0,28.49-14.15,51.43-14.39,23.34-40.86,36.65-27.73,13.94-81,13.94Zm-2.35,347.08V4723.18H2323q90.36,0,138.41,41.87,41,35.73,41,91.09,0,51.7-34.12,82.22-39.42,35.27-117.35,35.27Z"></path> <path class="c" d="M4838.95,5048.93h-15.78a26.07,26.07,0,0,1-10.5,8.72,31.56,31.56,0,0,1-14,3,29.68,29.68,0,0,1-12.52-2.65,33.79,33.79,0,0,1-11-7.32,32,32,0,0,1-6.76-10.66,35.48,35.48,0,0,1-2.41-13.31,34.1,34.1,0,0,1,2.64-12.76,33.11,33.11,0,0,1,7.31-10.9,31.69,31.69,0,0,1,22.31-9.26,33.21,33.21,0,0,1,14.23,3,26.79,26.79,0,0,1,10.73,8.87h15.78a39.15,39.15,0,0,0-15.78-18.13A45.29,45.29,0,0,0,4799,4981a44.7,44.7,0,0,0-17.18,3.19,47.06,47.06,0,0,0-25,24.82,43.76,43.76,0,0,0-3.58,17.67,50.66,50.66,0,0,0,2.88,17.28,44.49,44.49,0,0,0,8.63,14.24,46,46,0,0,0,15.39,11.44,48.4,48.4,0,0,0,42.53-2.57A42.84,42.84,0,0,0,4838.95,5048.93Z"></path> <rect class="d" x="4855.98" y="5057.72" width="12.75" height="14.71"></rect> </g> </g> </svg> 