<svg xmlns="http://www.w3.org/2000/svg" width="271" height="80" fill="none" viewBox="0 0 271 80">
  <g clip-path="url(#a)">
    <path fill="#fff" d="M241.936 28.911c1.794 0 3.179.474 3.893 1.341.66.796.632 1.816.49 2.524-.572 2.95-3.598 5.005-7.365 5.005-1.832 0-3.282-.485-3.98-1.33-.48-.583-.627-1.401-.425-2.431.491-2.541 3.184-5.109 7.387-5.109Zm-31.571 3.658c-.137.709-.24 1.412-.306 2.105-2.944 1.973-5.702 2.9-8.657 2.9-1.996 0-3.729-.654-4.629-1.744-.512-.622-.687-1.314-.529-2.121.529-2.72 4.22-5.109 7.9-5.109 2.295 0 4.454.807 6.57 2.465a23.99 23.99 0 0 0-.349 1.51v-.006Zm2.982 22.435-1.44 2.371-1.193-.67a14.593 14.593 0 0 0-2.459-1.085 16.573 16.573 0 0 0 1.706-.502l1.674-.61s.758-3.332 1.641-7.192c.218.306.447.6.687.895 2.486 3.014 6.068 5.315 10.391 6.798h-11.013l.006-.005ZM227.93 56l-.572 3.01-.796-3.342c.453.12.905.234 1.368.332Zm-81.864-26.81c-.491 1.608-1.282 4.22-2.187 7.197-.141-1.925-.736-3.675-1.788-5.223a10.986 10.986 0 0 0-1.51-1.767c2.028-.076 4.263-.158 5.485-.207Zm-63.05 3.593c-.573 2.95-3.6 5.005-7.366 5.005-1.832 0-3.282-.486-3.98-1.33-.344-.415-.513-.944-.513-1.587 0-.262.028-.545.088-.845.49-2.54 3.183-5.108 7.387-5.108 1.793 0 3.178.474 3.887 1.34.66.797.632 1.816.49 2.525h.006Zm57.74 13.891c-1.08 3.566-2.029 6.679-2.53 8.33h-9.748c4.967-1.646 9.432-4.394 12.278-8.33ZM47.513 30.677c-3.757 2.4-7.3 3.528-11.106 3.528-2.796 0-5.222-.922-6.482-2.459-.73-.889-.976-1.875-.747-3.01.73-3.658 5.61-6.749 10.653-6.749 3.402 0 6.559 1.27 9.633 3.877a23.873 23.873 0 0 0-1.951 4.819v-.006Zm46.553 20.86 3.168 1.422c1.75.785 3.68 1.472 5.708 2.04H97.07s-.37.74-.632 1.27l-.082-1.27h-10.2c2.85-.879 5.506-2.045 7.91-3.463Zm77.58 15.613c.681-3.592 2.311-12.146 2.311-12.146h-11.209c1.478-4.88 6.81-22.44 7.856-25.891.616.022 1.451.054 2.361.093a23.234 23.234 0 0 0-1.019 3.63c-1.118 5.78.239 11.357 3.827 15.702 2.349 2.851 5.566 5.043 9.344 6.466h-9.813l-2.312 12.146h-1.346Zm68.627 0c.502-2.65 1.521-7.992 2.018-10.62.463-.06.921-.125 1.379-.196l-2.055 10.816h-1.342Zm9.192-12.152c9.71-2.998 17.49-9.295 20.314-18.105.338-.998.61-2.029.812-3.08 1.15-5.938-.136-11.368-3.718-15.707-4.629-5.61-12.796-8.832-22.402-8.832-10.146 0-19.31 3.429-25.645 9.022.556-3.5 1.025-6.433 1.025-6.433l-2.748-.818c-3.887-1.16-8.205-1.771-12.49-1.771-7.349 0-14.387 2.251-20.068 5.986l1.624-5.354h-43.996l-.518 1.712c-3.909-1.576-8.216-2.344-13.063-2.344-9.05 0-18.863 3.5-23.955 10.26-.332-.49-.687-.97-1.068-1.434-4.63-5.61-12.796-8.832-22.402-8.832-9.606 0-18.782 3.239-25.09 8.554 1.09-6.613 2.454-14.916 2.454-14.916l-2.791-.807C50.975.719 45.675-.005 40.42-.005 21.137 0 3.587 12.255.463 27.902-.867 34.56.687 41.004 4.83 46.058c3.533 4.307 8.75 7.377 14.944 8.941H.67v24.435h97.31s.108-.218.147-.3c0 .055.016.3.016.3h11.716l1.586-2.59-.49 2.59h26.485l.387-2.028c2.328 1.505 5.354 2.312 8.826 2.312 3.108 0 5.992-.638 8.478-1.783l-.283 1.5h37.132l.06-.322a24.35 24.35 0 0 0 5.261.605c1.052 0 2.137-.093 3.211-.284h14.148l1.052-2.23h.943c.098.764.289 2.23.289 2.23h43.664l2.175-11.432h-.796c.147-.78.202-1.058.3-1.57.191 0 .518.305.518.305l2.251-11.738h-15.592Zm-202.683-.905 1.69-.594s.633-2.677 1.467-6.237c.229.322.469.638.725.943 2.486 3.015 6.068 5.316 10.391 6.799H43.19c1.347-.257 2.58-.556 3.588-.91h.005Z"/>
    <path fill="#E51937" d="m140.674 26.114 9.851-.37-8.265 27.242h17.675l8.265-27.242 9.628.37 3.926-12.931h-37.16l-3.926 12.931h.006ZM104.07 33.19c-2.469 12.775-16.017 20.434-30.852 20.434-14.834 0-25.422-7.654-22.947-20.433 2.421-12.512 16.122-20.64 30.896-20.64 14.775 0 25.329 8.128 22.909 20.64h-.006Zm-36.036.214c-.878 4.54 2.262 7.654 7.616 7.654 5.353 0 9.699-3.113 10.576-7.654.818-4.226-1.984-7.759-7.594-7.759s-9.78 3.539-10.598 7.759Z"/>
    <path fill="#E51937" d="M98.58 49.977c5.043 2.268 11.874 3.642 18.002 3.642 10.517 0 22.004-4.7 23.841-14.202 1.309-6.755-3.478-10.032-10.696-11.405l-3.855-.742c-1.303-.262-3.456-.474-3.173-1.952.316-1.635 2.666-2.11 4.214-2.11 3.806 0 6.968 1.32 9.677 3.01l6.744-10.19c-4.312-2.377-9.197-3.483-14.747-3.483-10.582 0-22.118 5.277-23.944 14.73-1.205 6.232 3.958 9.558 10.663 10.56l3.446.53c1.559.261 3.854.42 3.506 2.218-.349 1.794-3.233 2.378-4.978 2.378-4.062 0-7.556-1.636-10.326-3.642l-.79-.584-7.595 11.248.011-.006Zm117.591-35.791c-3.538-1.058-7.556-1.636-11.553-1.636-14.256 0-27.215 9.29-29.461 20.908-2.197 11.35 6.934 20.166 20.804 20.166 3.162 0 9.835-.474 12.888-1.586l3.397-14.89c-3.277 2.269-6.777 3.697-10.844 3.697-5.288 0-9.219-3.38-8.369-7.763.84-4.329 5.823-7.758 11.117-7.758 4.001 0 7.191 1.848 9.611 4.012l2.415-15.15h-.005Zm28.3-1.636c-14.774 0-28.475 8.129-30.895 20.64-2.47 12.775 8.112 20.434 22.952 20.434 14.84 0 28.382-7.654 30.852-20.433 2.421-12.512-8.134-20.64-22.909-20.64Zm-2.535 13.09c5.616 0 8.413 3.538 7.595 7.758-.878 4.541-5.223 7.654-10.577 7.654s-8.494-3.113-7.616-7.654c.818-4.225 4.983-7.758 10.598-7.758ZM54.83 5.25c-4.411-1.276-9.422-1.979-14.41-1.979-17.784 0-33.949 11.23-36.75 25.27-2.739 13.721 8.65 24.374 25.95 24.374 3.942 0 12.267-.573 16.072-1.914l4.236-17.997c-4.089 2.743-8.456 4.465-13.526 4.465-6.597 0-11.498-4.083-10.44-9.382 1.047-5.234 7.262-9.383 13.858-9.383 4.989 0 8.969 2.236 11.989 4.852l3.01-18.312.01.005Z"/>
    <path fill="#005DAB" d="m93.287 58.275.676 10.68h.169c.349-1.09.736-2.23 1.28-3.299l3.68-7.381h5.981l.905 10.68h.169c.311-1.041.66-2.137 1.14-3.157l3.593-7.523h8.117l-10.974 17.893h-6.809l-.6-9.732h-.256c-.262.927-.491 1.826-.91 2.704l-3.5 7.022h-6.636L85.196 58.27h8.09v.006Z"/>
    <path fill="#005DAB" d="M118.436 58.275h7.518l-1.145 6.03h4.787l1.145-6.03h7.518l-3.402 17.893h-7.518l1.183-6.215h-4.787l-1.183 6.215h-7.518l3.402-17.893Z"/>
    <path fill="#005DAB" d="M160.273 67.265c-1.09 5.74-7.071 9.18-13.624 9.18-6.553 0-11.22-3.44-10.129-9.18 1.068-5.627 7.12-9.28 13.64-9.28 6.521 0 11.182 3.654 10.113 9.28Zm-15.908.098c-.387 2.039.998 3.44 3.364 3.44 2.366 0 4.279-1.401 4.666-3.44.36-1.897-.872-3.49-3.352-3.49-2.481 0-4.318 1.593-4.678 3.49Z"/>
    <path fill="#005DAB" d="M161.985 58.275h7.802l-2.312 12.146h6.548l-1.091 5.741h-14.354l3.402-17.893.005.006Zm30.509 11.481.348.262c1.227.9 2.765 1.635 4.558 1.635.769 0 2.045-.261 2.197-1.068.153-.807-.856-.878-1.548-.998l-1.521-.234c-2.96-.453-5.239-1.946-4.711-4.749.807-4.247 5.899-6.618 10.572-6.618 2.447 0 4.606.496 6.509 1.565l-2.977 4.579c-1.194-.758-2.589-1.352-4.268-1.352-.682 0-1.723.213-1.859.949-.126.665.823.757 1.401.877l1.701.333c3.183.616 5.299 2.088 4.721 5.125-.812 4.268-5.883 6.384-10.528 6.384-2.704 0-5.719-.616-7.948-1.636l3.353-5.054Z"/>
    <path fill="#005DAB" d="m219.3 69.685-.31-3.156c-.082-.758-.077-1.543-.077-2.3h-.283l-2.459 5.456h3.135-.006Zm-6.793 6.477h-8.259l10.86-17.893h8.63l4.263 17.893h-8.259l-.289-2.23h-5.893l-1.053 2.23Z"/>
    <path fill="#005DAB" d="M230.749 58.275h7.802l-2.312 12.146h6.548l-1.091 5.741h-14.354l3.402-17.893.005.006Zm15.8 0h14.441l-.926 4.89h-6.581l-.327 1.706h6.008l-.883 4.65h-6.008l-.333 1.756h6.81l-.927 4.89h-14.666l3.402-17.892h-.01ZM4.907 76.195h82.737l-.006-.033h-.07l-1.047-4.547H4.907v4.58Zm0-6.505h81.172l-1.052-4.579H4.907v4.58Zm0-6.53h79.64l-.354-1.669-.736-3.184H4.907v4.853Zm172.883-4.885h14.442l-.927 4.89h-6.58l-.322 1.706h6.008l-.883 4.65h-6.008l-.333 1.756h6.81l-.927 4.89h-14.666l3.402-17.892h-.016Z"/>
  </g>
  <defs>
    <clipPath id="a">
      <path fill="#fff" d="M0 0h271v79.722H0z"/>
    </clipPath>
  </defs>
</svg>
