<?xml version="1.0" encoding="UTF-8"?>
<svg id="Layer_1" xmlns="http://www.w3.org/2000/svg" version="1.1" viewBox="0 0 287.11 288.3">
  <!-- Generator: Adobe Illustrator 29.8.2, SVG Export Plug-In . SVG Version: 2.1.1 Build 3)  -->
  <defs>
    <style>
      .st0 {
        fill: #fff;
      }

      .st1 {
        fill: #e41b12;
      }
    </style>
  </defs>
  <path class="st1" d="M154.37,0c98.21,9.35,160.85,110.71,120.12,203.05-45.09,102.2-185.66,115.62-249.02,23.33C-37.21,135.08,22.43,9.3,132.06,0h22.31ZM273.19,144.32c0-71.97-58.08-130.31-129.72-130.31S13.74,72.36,13.74,144.32s58.08,130.31,129.72,130.31,129.72-58.34,129.72-130.31Z"/>
  <path class="st0" d="M273.19,144.32c0,71.97-58.08,130.31-129.72,130.31S13.74,216.29,13.74,144.32,71.82,14.02,143.47,14.02s129.72,58.34,129.72,130.31ZM42.82,220.15h199.48c2.83-21.4.91-44.03-4.31-64.88-3.34-13.35-17.15-43.73-13.78-55.47,1.13-3.94,5.51-5.47,9.26-4.66,3.05.65,4.37,3.92,7.52,3.71-2.71-23.63-18.48-38.82-40.03-21.03-7.77-4.9-11.31-12.53-21.31-14.24-21.44-3.66-33.83,10.18-43,27.35-24.4-31.65-43.5,8.94-66.29,15.17-13.51,3.69-21.31,1.18-34.1-3.27-.4,15.28,8.56,29.93,23.67,33.68-8.6,27.14-17.17,54.79-17.12,83.64Z"/>
  <path class="st1" d="M42.82,220.15c-.05-28.85,8.51-56.5,17.12-83.64-15.11-3.75-24.07-18.4-23.67-33.68,12.79,4.45,20.59,6.97,34.1,3.27,22.79-6.23,41.9-46.82,66.29-15.17,9.16-17.16,21.56-31.01,43-27.35,10,1.71,13.54,9.34,21.31,14.24,21.54-17.79,37.32-2.6,40.03,21.03-3.14.21-4.47-3.06-7.52-3.71-3.75-.8-8.13.72-9.26,4.66-3.37,11.73,10.44,42.11,13.78,55.47,5.22,20.85,7.14,43.48,4.31,64.88H42.82ZM181.95,163.47c30.77-15.34,28.77-89.7-12.37-84.25-23.45,3.11-32.56,40.73-27.71,60.56,1.9,7.79,7.31,19.38,15.13,22.36-6.05-15.9-6.11-39.87,2.59-54.73,10.92-18.67,22.77-7.16,26.75,8.8,4.04,16.2,1.7,31.99-4.39,47.27ZM128.11,135.78c5.12-57.17-49.73-32.89-49.84,6.59,13.85-14.93,32.43-16.68,49.84-6.59ZM167.04,116.15c-7.61,2.48-5.22,30,2.24,28.76,8.75-1.46,8.3-32.19-2.24-28.76ZM104.18,137.42c-7.51.43-18.26,7.6-18.78,15.54,12.99,9.01,29.83,10.47,33.37-8.33-2.53-4.77-9.45-7.5-14.59-7.21ZM118.96,209.6c1.84.42,2.16-.27,3.3-1.28,3.71-3.27,7.01-9.4,11.81-13.19,6.26-4.94,14.22-6.5,18.86-12.82,1.03-4.01-10.44-11.76-12.79-15.74-6.13-10.38-3.37-29.97-19.11-5.63-10.48,16.22-10.92,31.55-2.06,48.66Z"/>
  <path class="st0" d="M181.95,163.47c6.09-15.28,8.43-31.07,4.39-47.27-3.98-15.96-15.83-27.47-26.75-8.8-8.69,14.86-8.64,38.83-2.59,54.73-7.82-2.97-13.23-14.57-15.13-22.36-4.85-19.83,4.26-57.46,27.71-60.56,41.14-5.45,43.13,68.91,12.37,84.25Z"/>
  <path class="st0" d="M118.96,209.6c-8.85-17.1-8.42-32.44,2.06-48.66,15.74-24.35,12.97-4.76,19.11,5.63,2.35,3.98,13.82,11.73,12.79,15.74-4.64,6.32-12.6,7.88-18.86,12.82-4.79,3.78-8.1,9.91-11.81,13.19-1.14,1.01-1.46,1.7-3.3,1.28Z"/>
  <path class="st0" d="M128.11,135.78c-17.41-10.09-35.99-8.34-49.84,6.59.12-39.48,54.96-63.76,49.84-6.59Z"/>
  <path class="st0" d="M104.18,137.42c5.14-.29,12.06,2.44,14.59,7.21-3.54,18.8-20.38,17.34-33.37,8.33.53-7.94,11.28-15.11,18.78-15.54Z"/>
  <path class="st0" d="M167.04,116.15c10.54-3.43,10.99,27.29,2.24,28.76-7.47,1.25-9.86-26.27-2.24-28.76Z"/>
</svg>