<svg xmlns="http://www.w3.org/2000/svg" viewBox="295.5 0.2 147.8 89.8">
  <path fill="#EB0028" d="M393.5 56.6h15.7v-5.7h-9.4v-3h9.3v-5.6h-9.3v-3.1h9.4v-5.6h-15.7zm-52.2 0H357v-5.7h-9.5v-3h9.4v-5.6h-9.4v-3.1h9.5v-5.6h-15.7zm29.2-9.6L365 33.6h-6.7l9.3 23h5.8l9.2-23h-6.7L370.5 47m13.4-13.4h6.2v23h-6.2zm-71.8 15c-1.1 1.4-2.7 2.3-4.6 2.3-3.2 0-5.7-2.6-5.7-5.7 0-3.2 2.6-5.7 5.7-5.7 1.9 0 3.5.9 4.6 2.3l5.6-2.7h.1c-2.1-3.5-5.9-5.8-10.3-5.8-6.6 0-12 5.4-12 12s5.3 12 12 12c4.4 0 8.2-2.4 10.3-5.8l-.2-.1-5.5-2.8zm116-.3c.3-.2.6-.4.8-.7 1.7-1.5 2.5-3.5 2.5-5.8 0-2.6-1.2-4.9-2.8-6.2-1.6-1.3-3.5-2-5.3-2h-10.8v23h6.3v-6.7h3.1l3.1 6.7h6.9l-3.8-8.3zm-9.3-9h4.2c1.8 0 2.2 1.4 2.2 2.5 0 1.2-.4 2.5-2.2 2.5h-4.2v-5zm-83.9 9c.3-.2.6-.4.8-.7 1.7-1.5 2.5-3.5 2.5-5.8 0-2.6-1.2-4.9-2.8-6.2-1.6-1.3-3.5-2-5.3-2h-10.8v23h6.3v-6.7h3.1l3.1 6.7h6.9l-3.8-8.3zm-9.3-9h4.2c1.8 0 2.2 1.4 2.2 2.5 0 1.2-.4 2.5-2.2 2.5h-4.2v-5z"/>
  <path fill="#213871" d="M319.4.2h89.8v16.7h-89.8zm0 73.1h89.8V90h-89.8z"/>
</svg>
