<svg xmlns:xlink="http://www.w3.org/1999/xlink" xmlns="http://www.w3.org/2000/svg" width="100" height="100" viewBox="0 0 100 100" class="svg-eko-logo"><g fill="none" fill-rule="evenodd"><path fill="#FFFFFF" d="M0 0h100v100H0z"></path><path fill="#004E9C" d="M2 2v96l96-.024V2z"></path><path fill="#FFFFFF" d="M49.992 91.767c23.094 0 41.817-18.723 41.817-41.817 0-23.095-18.723-41.818-41.817-41.818-23.096 0-41.817 18.723-41.817 41.818 0 23.094 18.721 41.817 41.817 41.817"></path><path fill="#004E9C" d="M49.992 90.066c22.154 0 40.115-17.961 40.115-40.117 0-22.155-17.96-40.116-40.115-40.116S9.876 27.794 9.876 49.949c0 22.156 17.96 40.117 40.116 40.117"></path><path fill="#FFFFFF" d="M49.992 88.245c21.149 0 38.294-17.147 38.294-38.295 0-21.15-17.145-38.295-38.294-38.295-21.15 0-38.294 17.146-38.294 38.295 0 21.148 17.144 38.295 38.294 38.295"></path><path fill="#E32031" d="M40.866 32.355h7.748v14.61l3.979-6.546h8.941l-6.34 10.837 6.799 12.704h-8.945l-4.421-8.797v8.775h-7.67V40.322h-2.156z"></path><path fill="#E32031" d="M83.343 49.108c-1.343-5.027-5.928-8.73-11.38-8.73-6.505 0-11.778 5.273-11.778 11.777 0 6.507 5.273 11.78 11.778 11.78 6.504 0 11.78-5.273 11.78-11.78 0-1.054-.14-2.074-.4-3.047"></path><path fill="#FFFFFF" d="M71.963 55.938a3.782 3.782 0 1 0 0-7.564 3.782 3.782 0 0 0 0 7.564"></path><path fill="#E32031" d="M38.491 54.601c.23-8.325-4.693-14.224-11.357-14.224-6.82 0-11.092 6.052-11.092 11.032 0 8.045 6.589 12.488 12.566 12.488 3.472 0 5.092-.412 7.158-1.026l2.004-6.644c-3.186.699-6.063 1.254-8.415 1.248-2.417-.007-5.236-.706-6.033-2.874h15.17z"></path><path fill="#FFFFFF" d="M23.126 49.464c.689-1.695 2.252-2.538 4.018-2.538 1.864 0 3.15 1.006 3.763 2.485l-7.78.053z"></path></g></svg>