<?xml version="1.0" encoding="UTF-8" standalone="no"?>
<!-- Created with Inkscape (http://www.inkscape.org/) -->

<svg
   xmlns:dc="http://purl.org/dc/elements/1.1/"
   xmlns:cc="http://creativecommons.org/ns#"
   xmlns:rdf="http://www.w3.org/1999/02/22-rdf-syntax-ns#"
   xmlns:svg="http://www.w3.org/2000/svg"
   xmlns="http://www.w3.org/2000/svg"
   version="1.1"
   width="715.74799"
   height="434.05511"
   id="svg4878">
  <defs
     id="defs4880" />
  <metadata
     id="metadata4883">
    <rdf:RDF>
      <cc:Work
         rdf:about="">
        <dc:format>image/svg+xml</dc:format>
        <dc:type
           rdf:resource="http://purl.org/dc/dcmitype/StillImage" />
        <dc:title></dc:title>
      </cc:Work>
    </rdf:RDF>
  </metadata>
  <g
     transform="translate(-11.324848,-311.12951)"
     id="layer1">
    <g
       transform="matrix(10.128118,0,0,10.128118,-8639.0333,-5522.7117)"
       id="g4923">
      <g
         transform="matrix(1.25,0,0,-1.25,854.46576,592.10438)"
         id="g4312">
        <path
           d="M 0,0 C 0.002,0.469 0.035,1.087 0.606,1.589 0.858,1.805 1.244,1.97 1.663,1.97 2.55,1.966 3.37,1.261 3.367,-0.062 L 3.348,-8.33 C 3.347,-8.647 3.296,-9.064 3.044,-9.462 2.741,-9.93 2.238,-10.196 1.669,-10.194 c -0.521,0 -1.023,0.237 -1.34,0.673 -0.299,0.419 -0.349,0.837 -0.347,1.204 L 0,0"
           id="path4314"
           style="fill:#28419e;fill-opacity:1;fill-rule:nonzero;stroke:none" />
      </g>
      <g
         transform="matrix(1.25,0,0,-1.25,867.64076,593.13225)"
         id="g4316">
        <path
           d="M 0,0 C 0.503,-0.019 1.122,-0.056 1.457,-0.609 1.555,-0.792 1.604,-1.028 1.607,-1.245 1.604,-1.68 1.418,-1.981 1.216,-2.131 0.882,-2.414 0.378,-2.427 -0.023,-2.425 L -1.766,-2.421 -1.76,0.005 0,0 z m -5.165,-7.43 c 0,-0.416 0.048,-0.969 0.502,-1.44 0.316,-0.335 0.736,-0.538 1.205,-0.54 0.485,-10e-4 0.988,0.216 1.292,0.599 0.352,0.433 0.388,0.918 0.39,1.335 l 0.003,2.478 1.274,-0.003 C 0.038,-5.02 0.843,-5.04 1.226,-5.828 1.36,-6.113 1.409,-6.413 1.46,-6.732 c 0.129,-0.94 0.231,-1.64 0.898,-2.247 0.152,-0.134 0.518,-0.451 1.155,-0.455 0.922,-0.003 1.759,0.58 1.761,1.382 0.001,0.285 -0.164,0.555 -0.265,0.806 -0.133,0.336 -0.214,0.955 -0.265,1.323 -0.328,2.14 -1.267,2.312 -2.172,2.432 0.418,0.082 1.039,0.182 1.61,0.833 0.251,0.283 0.706,0.917 0.709,1.971 0,0.903 -0.265,1.707 -0.95,2.328 C 3.021,2.463 1.883,2.57 0.509,2.575 L -3.397,2.586 C -3.799,2.59 -4.536,2.526 -4.924,1.823 -5.127,1.49 -5.128,1.172 -5.146,0.871 L -5.165,-7.43"
           id="path4318"
           style="fill:#28419e;fill-opacity:1;fill-rule:nonzero;stroke:none" />
      </g>
      <g
         transform="matrix(1.25,0,0,-1.25,879.99927,596.00212)"
         id="g4320">
        <path
           d="m 0,0 c 0.415,-1.556 0.497,-1.939 0.745,-3.361 0.169,0.849 0.237,1.136 0.474,2.054 L 2.641,3.626 C 2.808,4.128 3.111,4.978 4.201,4.973 5.222,4.971 5.824,4.167 5.821,3.379 5.82,2.962 5.668,2.544 5.535,2.143 L 2.819,-5.378 c -0.44,-1.255 -0.658,-1.723 -2.183,-1.717 -1.325,0.007 -1.573,0.575 -1.957,1.63 l -2.863,8.242 c -0.064,0.218 -0.115,0.403 -0.115,0.654 0.002,0.937 0.741,1.586 1.645,1.584 1.168,-0.01 1.47,-0.894 1.655,-1.447 L 0,0"
           id="path4322"
           style="fill:#28419e;fill-opacity:1;fill-rule:nonzero;stroke:none" />
      </g>
      <g
         transform="matrix(1.25,0,0,-1.25,888.46301,592.11725)"
         id="g4324">
        <path
           d="M 0,0 C 0,0.468 0.034,1.087 0.606,1.587 0.858,1.802 1.243,1.97 1.664,1.967 2.55,1.964 3.37,1.258 3.366,-0.062 L 3.361,-8.335 C 3.367,-8.658 3.322,-9.075 3.074,-9.474 2.776,-9.94 2.272,-10.202 1.697,-10.195 c -0.523,0.006 -1.03,0.246 -1.349,0.685 -0.305,0.422 -0.355,0.842 -0.352,1.212 L 0,0"
           id="path4326"
           style="fill:#28419e;fill-opacity:1;fill-rule:nonzero;stroke:none" />
      </g>
      <g
         transform="matrix(1.25,0,0,-1.25,895.39414,591.83463)"
         id="g4328">
        <path
           d="M 0,0 C 0.003,0.349 0.055,0.886 0.492,1.301 0.895,1.666 1.397,1.702 1.85,1.699 2.804,1.696 3.138,1.391 3.505,0.79 4.109,-0.203 4.699,-1.199 5.297,-2.203 5.998,-3.412 6.665,-4.635 7.351,-5.842 L 7.227,-0.049 C 7.223,0.289 7.254,0.628 7.47,0.981 7.857,1.631 8.518,1.658 8.753,1.655 9.16,1.652 9.546,1.511 9.882,1.176 10.334,0.689 10.33,0.121 10.345,-0.297 L 10.326,-8.679 C 10.325,-9.08 10.291,-10.503 8.598,-10.495 8.045,-10.497 7.356,-10.292 6.504,-9.101 5.905,-8.262 4.17,-5.195 2.986,-3.119 L 3.124,-8.687 C 3.106,-9.054 3.106,-9.424 2.867,-9.808 c -0.282,-0.449 -0.786,-0.701 -1.29,-0.695 -0.234,-0.002 -0.501,0.064 -0.737,0.201 -0.785,0.42 -0.833,1.206 -0.832,1.826 L 0,0"
           id="path4330"
           style="fill:#28419e;fill-opacity:1;fill-rule:nonzero;stroke:none" />
      </g>
      <g
         transform="matrix(1.25,0,0,-1.25,920.29039,604.60313)"
         id="g4332">
        <path
           d="m 0,0 c -1.063,-0.337 -1.763,-0.374 -2.637,-0.364 -1.072,0.013 -2.401,0.283 -3.657,1.424 -1.47,1.309 -1.902,3.119 -1.898,4.809 0.009,3.714 2.328,6.267 6.03,6.253 C 0.736,12.111 2.048,10.848 2.573,10.06 2.726,9.789 2.844,9.445 2.718,8.946 2.554,8.391 1.893,7.802 0.964,7.984 0.413,8.114 -0.026,8.582 -0.288,8.817 -0.523,9.03 -0.942,9.445 -2.002,9.461 -3.98,9.466 -4.853,7.883 -4.858,5.99 -4.862,3.699 -3.775,2.44 -2.253,2.434 c 0.42,-0.002 0.989,0.096 1.441,0.363 0.606,0.333 0.943,0.832 1.043,1.502 l -1.123,0.003 c -0.352,0 -0.754,0.005 -1.071,0.188 -0.419,0.221 -0.652,0.64 -0.65,1.109 0,0.45 0.22,0.786 0.538,1.002 0.301,0.199 0.568,0.215 0.871,0.231 L 1.88,6.821 C 2.181,6.82 2.517,6.802 2.817,6.615 3.269,6.313 3.283,5.796 3.298,5.226 3.19,0.749 0,0 0,0"
           id="path4334"
           style="fill:#28419e;fill-opacity:1;fill-rule:nonzero;stroke:none" />
      </g>
      <g
         transform="matrix(1.25,0,0,-1.25,874.07577,585.54312)"
         id="g4336">
        <path
           d="M 0,0 5.969,-0.009 12.297,3.868 18.59,-0.009 24.532,-0.01 12.296,7.353 0,0 z"
           id="path4338"
           style="fill:#ee293d;fill-opacity:1;fill-rule:nonzero;stroke:none" />
      </g>
      <g
         transform="matrix(1.25,0,0,-1.25,904.77214,609.32975)"
         id="g4340">
        <path
           d="m 0,0 -5.966,0.012 -6.323,-3.872 -6.319,3.901 -5.942,0 12.261,-7.388 L 0,0 z"
           id="path4342"
           style="fill:#ee293d;fill-opacity:1;fill-rule:nonzero;stroke:none" />
      </g>
    </g>
  </g>
</svg>
