<?xml version="1.0" encoding="utf-8"?>
<!-- Generator: Adobe Illustrator 25.3.1, SVG Export Plug-In . SVG Version: 6.00 Build 0)  -->
<svg version="1.1" id="Layer_1" xmlns="http://www.w3.org/2000/svg" xmlns:xlink="http://www.w3.org/1999/xlink" x="0px" y="0px"
	 viewBox="0 0 117.4 60.8" style="enable-background:new 0 0 117.4 60.8;" xml:space="preserve">
<style type="text/css">
	.st0{fill:#FFFFFF;}
	.st1{fill:#49C5B1;}
	.st2{fill:#005094;}
	.st3{fill-rule:evenodd;clip-rule:evenodd;fill:#FFFFFF;}
</style>
<g>
	<g>
		<rect x="1" y="1" class="st0" width="115.5" height="58.9"/>
		<path class="st0" d="M117.4,60.8H0V0h117.4V60.8z M1.9,58.9h113.6v-57H1.9V58.9z"/>
	</g>
	<path class="st1" d="M116.4,0.9H0.9V27c7.7-6.5,37.3-16.3,115.5-23.3V0.9z"/>
	<path class="st2" d="M0.9,56c0,0.1,0,0.2,0,0.3l0,0v3.5h115.5V7.2C10.9,20.1,1.2,47.5,0.9,56z"/>
	<polyline class="st3" points="29.7,40.4 25.6,46.6 24.9,40.4 20.4,40.4 17.8,48.9 20.9,48.9 22.6,42.9 23.6,48.9 26.4,48.9 
		30.6,42.9 28.7,48.9 31.8,48.9 34.5,40.4 29.7,40.4 	"/>
	<path class="st3" d="M54.4,46.4h-2.8c-0.3,0.9-1.1,1.4-2.3,1.4c-1.3,0-2-0.7-2-1.8c0-0.8,0.3-1.6,0.9-2.2c0.5-0.5,1.2-0.8,2-0.8
		c1.2,0,1.8,0.4,1.8,1.3h2.7c0-0.1,0-0.1,0-0.2c0-1.6-1.7-2.6-4.4-2.6c-1.3,0-2.4,0.2-3.3,0.7c-1.5,0.8-2.5,2.2-2.5,3.7
		c0,2.1,1.7,3.3,4.6,3.3C52,49.3,53.9,48.2,54.4,46.4"/>
	<polyline class="st3" points="67.6,40.4 57.8,40.4 55.2,48.9 65.1,48.9 65.6,47.2 58.9,47.2 59.5,45.4 65.5,45.4 66,43.7 60,43.7 
		60.5,42 67.1,42 67.6,40.4 	"/>
	<path class="st3" d="M85.5,40.4h-3.4l-1.7,2.7c-0.3,0.5-0.7,1.1-1,1.7c-0.4,0.8-0.6,1.1-0.9,1.9c0.1-0.8,0.1-1.2,0.1-2.2
		c0-0.4,0-0.9,0-1.3l-0.1-2.8h-3l-1.8,2.9c-0.2,0.4-0.5,0.9-0.9,1.5c-0.5,1-0.7,1.2-1,1.9c0.1-0.8,0.1-1.2,0.1-2.1c0-0.3,0-0.6,0-1
		l-0.1-3.2h-3.3l0.9,8.5h3.3l1.7-2.6c0.2-0.4,0.5-0.9,0.8-1.4c0.5-0.8,0.6-1.1,0.9-1.8c-0.1,0.6-0.1,0.9-0.1,1.8c0,0.4,0,0.8,0,1.1
		l0.2,2.9h3.2L85.5,40.4"/>
	<polyline class="st3" points="96.6,40.4 86.9,40.4 84.2,48.9 94.1,48.9 94.6,47.2 87.9,47.2 88.5,45.4 94.6,45.4 95.1,43.7 
		89,43.7 89.6,42 96.1,42 96.6,40.4 	"/>
	<path class="st3" d="M110,40.4h-3.2l-1,3.4c-0.2,0.7-0.4,1.6-0.5,2.2c-0.2-0.5-0.5-1.1-0.8-1.7l-2.1-3.9H99l-2.6,8.5h3.2l1.1-3.6
		c0.2-0.7,0.4-1.4,0.5-2c0.2,0.4,0.5,1.1,0.8,1.6l2.2,4h3.2L110,40.4"/>
	<path class="st3" d="M37.9,46.3l2.1-2.6l0.6,2.6H37.9z M42,41.9h-2.8l-6.1,7.1h2.6l1.1-1.3h4.2l0.3,1.3h2.7L42,41.9z"/>
</g>
</svg>
