<svg xmlns="http://www.w3.org/2000/svg" width="127.721" height="26.627" viewBox="0 0 127.721 26.627">
  <path d="M186.113,146.942a15.9,15.9,0,0,1-2.972-.267,10.174,10.174,0,0,1-1.557-.368,10.351,10.351,0,0,1-3.5-1.8,8.084,8.084,0,0,1-2.233-2.82,8.529,8.529,0,0,1-.8-3.711,11.4,11.4,0,0,1,.179-1.972,12.171,12.171,0,0,1,1.891-4.719,12.94,12.94,0,0,1,3.448-3.414,16.882,16.882,0,0,1,9.374-2.761h.036a15.264,15.264,0,0,1,4.989.83,10.868,10.868,0,0,1,2.363,1.16,7.9,7.9,0,0,1,2.584,2.727,8.233,8.233,0,0,1,1.013,4.1,11.665,11.665,0,0,1-.2,2.12,11.989,11.989,0,0,1-2.2,5.21,12.521,12.521,0,0,1-3.78,3.35,17.66,17.66,0,0,1-8.606,2.334h-.036m-.667-5.353a4.263,4.263,0,0,0,1.545.277h.037a4.392,4.392,0,0,0,1.891-.412,4.033,4.033,0,0,0,1.526-1.146,6.514,6.514,0,0,0,1.147-1.873,11.583,11.583,0,0,0,.717-2.543,11.179,11.179,0,0,0,.184-1.861,6.156,6.156,0,0,0-.2-1.6,3.447,3.447,0,0,0-.623-1.211,2.8,2.8,0,0,0-1.526-.907,4.7,4.7,0,0,0-1.072-.118h-.04a4.549,4.549,0,0,0-3.372,1.424,6.064,6.064,0,0,0-1.206,1.814,9.841,9.841,0,0,0-.762,2.575,10.653,10.653,0,0,0-.2,1.929v.027a4.031,4.031,0,0,0,1.041,3.057A2.843,2.843,0,0,0,185.446,141.589Z" transform="translate(-73.209 -120.314)" fill="#d81e05"/>
  <path d="M157.439,125.814h8.255s-.347,1.765-.483,2.469l-.009.067.047-.042a10.047,10.047,0,0,1,3.21-1.98,13.006,13.006,0,0,1,2.232-.689,9.119,9.119,0,0,1,1.314-.187c.478-.045.971-.064,1.443-.064.455,0,.892.019,1.26.046l.61.07-1.466,6.961h-.532a10.991,10.991,0,0,0-1.283-.06,15.641,15.641,0,0,0-1.888.1,7.7,7.7,0,0,0-1.519.325,11.282,11.282,0,0,0-2.247.951,5.959,5.959,0,0,0-1.527,1.17,5.135,5.135,0,0,0-.977,1.439,9.667,9.667,0,0,0-.622,1.8c-.556,2.235-1.722,8.167-1.722,8.167l-8.2.006,4.107-20.544" transform="translate(-72.347 -120.326)" fill="#d81e05"/>
  <path d="M139.713,144.623a7,7,0,0,1-1.949-2.15,5.9,5.9,0,0,1-.768-2.988,7.569,7.569,0,0,1,.2-1.7l1.718-7.287h-3.034l.962-4.9h2.973l.684-3.414,8.211-2.075-1.138,5.489h5.349l-.942,4.9h-5.2l-1.508,6.3a4.366,4.366,0,0,0-.108.937,4.6,4.6,0,0,0,.187,1.256c.623,2.025,2.5,2.189,4.4,1.947l-.966,5.21a17.224,17.224,0,0,1-3.381.324h0a9.4,9.4,0,0,1-5.678-1.85" transform="translate(-71.654 -120.116)" fill="#d81e05"/>
  <path d="M117.54,146.729a7.244,7.244,0,0,1-.817-.126,14.286,14.286,0,0,1-2.06-.52,8.874,8.874,0,0,1-5.757-8.437v-.011a10.562,10.562,0,0,1,.108-1.463,15.171,15.171,0,0,1,1.3-4.406,10.873,10.873,0,0,1,2.625-3.495,11.473,11.473,0,0,1,4.092-2.3,17.967,17.967,0,0,1,5.69-.833c.172,0,.353.007.52.007a11.4,11.4,0,0,1,3.251.559c.076.031.145.047.217.072a10.378,10.378,0,0,1,3.131,1.709,8.558,8.558,0,0,1,2.25,2.752,8.423,8.423,0,0,1,.866,3.787,11.558,11.558,0,0,1-.365,2.762l-.1.4H132l-15.607-.053-.012.012c-.007.09-.007.162-.007.254a4.343,4.343,0,0,0,1.636,3.235,6.168,6.168,0,0,0,2.285,1.214,7.4,7.4,0,0,0,2.124.291c.209,0,.421,0,.65-.02a21.956,21.956,0,0,0,6.666-1.3l1.088-.425-1.924,5.091-.206.1a21.056,21.056,0,0,1-7.941,1.365h-.04a23.754,23.754,0,0,1-3.175-.213m8.192-13.608.007-.012a6.811,6.811,0,0,0,.048-.689v-.013a2.887,2.887,0,0,0-.867-2.2,2.994,2.994,0,0,0-1.512-.7,4.688,4.688,0,0,0-.914-.093h-.042a5.215,5.215,0,0,0-5.021,3.688v.02Z" transform="translate(-70.584 -120.315)" fill="#d81e05"/>
  <path d="M81.5,146.358l3.093-13.309a2.083,2.083,0,0,0,.05-.379v-.016a1.422,1.422,0,0,0-.484-1.069,1.531,1.531,0,0,0-.436-.276,1.916,1.916,0,0,0-.812-.165,2.66,2.66,0,0,0-2.543,1.891l-3.158,13.323H69l2.873-12.719a15.583,15.583,0,0,1,1.111-3.29,9.485,9.485,0,0,1,1.958-2.77,8.616,8.616,0,0,1,3.07-1.925,12.781,12.781,0,0,1,4.484-.712c.334,0,.693,0,1.065.026a12.08,12.08,0,0,1,1.267.146,8.174,8.174,0,0,1,4.762,2.625l.01.009.027-.009a15.124,15.124,0,0,1,3.684-1.958,12.237,12.237,0,0,1,4.112-.812h.16a13.224,13.224,0,0,1,2.816.258c.292.064.564.128.829.209a6.7,6.7,0,0,1,2.437,1.3,5.241,5.241,0,0,1,1.371,1.979,6.732,6.732,0,0,1,.424,2.474,10.865,10.865,0,0,1-.292,2.438l-2.847,12.736h-8.29l2.877-13.244a2.492,2.492,0,0,0,.036-.373v-.014a1.484,1.484,0,0,0-.485-1.085,2.856,2.856,0,0,0-.354-.223,1.871,1.871,0,0,0-.879-.2h-.012a2.659,2.659,0,0,0-2.545,1.883L89.9,146.358H81.5" transform="translate(-69 -120.307)" fill="#d81e05"/>
</svg>
