<?xml version="1.0" encoding="utf-8"?>
<!-- Generator: Adobe Illustrator 16.0.4, SVG Export Plug-In . SVG Version: 6.00 Build 0)  -->
<!DOCTYPE svg PUBLIC "-//W3C//DTD SVG 1.1//EN" "http://www.w3.org/Graphics/SVG/1.1/DTD/svg11.dtd">
<svg version="1.1" id="Layer_1" xmlns="http://www.w3.org/2000/svg" xmlns:xlink="http://www.w3.org/1999/xlink" x="0px" y="0px"
	 width="490px" height="271px" viewBox="0 0 490 271" enable-background="new 0 0 490 271" xml:space="preserve">
<g>
	<g>
		<path fill="#0066CC" d="M198.357,66.71c-17.818,7.941-25.293,30.003-25.293,30.003s21.399,9.141,39.217,1.194
			c17.825-7.952,25.292-29.988,25.292-29.988S216.17,58.752,198.357,66.71z"/>
		<path fill="#99CC33" d="M236.738,27.938c-14.45-13.091-37.657-11.036-37.657-11.036s0.263,23.267,14.719,36.36
			c14.463,13.093,37.637,11.053,37.637,11.053S251.198,41.032,236.738,27.938z"/>
		<path fill="#0099FF" d="M287.691,47.437c6.16-18.518-5.081-38.919-5.081-38.919s-21.187,9.621-27.34,28.133
			c-6.147,18.52,5.08,38.906,5.08,38.906S281.545,65.932,287.691,47.437z"/>
		<path fill="#66CCCC" d="M290.407,101.914c19.432-1.839,33.558-20.342,33.558-20.342s-17.35-15.517-36.778-13.679
			c-19.431,1.841-33.54,20.344-33.54,20.344S270.99,103.756,290.407,101.914z"/>
	</g>
	<g>
		<path d="M305.622,124.896c-11.259,0-20.786,5.241-24.38,10.418l-0.298,0.43h-0.523h-0.231h-1v-1V126.6h-17.562v61.158h18.255
			v-29.543c0-12.252,6.697-19.279,18.375-19.279c9.675,0,14.58,4.7,14.58,13.971v34.852h18.253v-41.1
			C331.09,126.466,311.597,124.896,305.622,124.896z"/>
		<path d="M28.98,135.296l-0.296,0.448h-0.538h-0.221h-1v-1v-8.197H10.281v61.211h17.304v-29.543c0-12.252,6.4-19.279,17.56-19.279
			c9.252,0,13.943,4.7,13.943,13.971v34.852h17.304v-41.1c0-20.192-18.543-21.762-24.227-21.762
			C41.459,124.896,32.398,130.128,28.98,135.296z"/>
		<rect x="235.84" y="126.6" width="18.708" height="61.158"/>
		<rect x="235.84" y="104.141" width="18.708" height="12.623"/>
		<path d="M338.041,156.734c0,27.246,22.107,32.965,40.652,32.965s40.65-5.719,40.65-32.965c0-27.244-22.105-32.963-40.65-32.963
			S338.041,129.49,338.041,156.734z M399.931,156.734c0,12.928-7.741,20.342-21.237,20.342c-13.498,0-21.239-7.414-21.239-20.342
			c0-12.927,7.741-20.34,21.239-20.34C392.189,136.395,399.931,143.808,399.931,156.734z"/>
		<path d="M447.551,138.563l-0.301,0.366h-0.474h-0.247h-1v-1v-11.383h-19.02v61.211h19.762v-26.242
			c0-13.385,7.913-20.459,22.885-20.459c3.963,0,7.727,0.759,10.994,1.591v-15.386c-1.865-0.287-4.185-0.433-6.913-0.433
			C460.76,126.829,454.999,129.461,447.551,138.563z"/>
		<path d="M207.93,138.544l-0.3,0.386h-0.489h-0.236h-1v-1V126.6h-14.306h-4.695h-12.028h-1v-1v-18.605H155.15V125.6v1h-1h-9.561
			h-3.511h-13.615v30.553c0,12.027-5.957,18.926-16.344,18.926c-8.865,0-13.359-4.701-13.359-13.973v-35.559H81.636v41.809
			c0,20.192,17.365,21.762,22.688,21.762c10.017,0,18.5-5.221,21.703-10.377l0.293-0.473h0.556h0.207h1v1v7.49h15.507v-48.242v-1h1
			h9.561h1v1v31.988c0,10.396,0.993,16.768,20.55,16.768c3.751,0,12.368-0.33,15.251-0.444v-0.04l1-0.029h14.66v-26.242
			c0-13.385,7.547-20.459,21.825-20.459c1.215,0,2.469,0.081,3.805,0.246V126.6C220.59,126.611,215.129,129.299,207.93,138.544z
			 M187.903,139.516v35.975v0.949l-0.948,0.05c-1.88,0.098-3.51,0.144-5.13,0.144c-5.87,0-7.95-1.992-7.95-7.611v-29.506v-1h1
			h12.028h1V139.516z"/>
	</g>
	<g>
		<g>
			<path fill="#231F20" d="M35.796,237.807c-0.667-4.387-3.917-8.111-10.168-8.111c-7.042,0-11.501,4.301-11.501,12.943
				c0,5.984,3.042,12.146,11.251,12.146c5.209,0,9.168-2.66,10.418-8.822h4.417c-0.708,7.004-6.376,12.9-14.877,12.9
				c-7.501,0-15.627-4.389-15.627-16.711c0-9.221,5.417-16.535,15.585-16.535c5.959,0,14.168,2.705,14.918,12.189H35.796z"/>
			<path fill="#231F20" d="M71.552,225.617c11.959,0,16.543,8.512,16.543,16.623s-4.584,16.623-16.543,16.623
				c-11.96,0-16.544-8.512-16.544-16.623S59.592,225.617,71.552,225.617z M71.552,229.695c-6.793,0-12.127,4.168-12.127,12.545
				s5.334,12.545,12.127,12.545c6.792,0,12.126-4.168,12.126-12.545S78.344,229.695,71.552,229.695z"/>
			<path fill="#231F20" d="M119.143,225.617c11.959,0,16.543,8.512,16.543,16.623s-4.584,16.623-16.543,16.623
				c-11.96,0-16.544-8.512-16.544-16.623S107.183,225.617,119.143,225.617z M119.143,229.695c-6.792,0-12.126,4.168-12.126,12.545
				s5.334,12.545,12.126,12.545s12.126-4.168,12.126-12.545S125.936,229.695,119.143,229.695z"/>
			<path fill="#231F20" d="M151.982,226.416h15.335c6.542,0,9.959,3.191,9.959,9.086c0,5.941-3.417,9.885-9.667,9.885h-11.21v12.678
				h-4.417V226.416z M167.025,241.309c4.375,0,5.834-2.525,5.834-5.717c0-3.016-1.667-5.098-5.042-5.098h-11.418v10.814H167.025z"/>
			<path fill="#231F20" d="M193.238,226.416h23.92v4.078h-19.502v9.176h18.919v4.078h-18.919v10.238h19.919v4.078h-24.336V226.416z
				 M206.615,218.127h5.209l-5.459,6.205h-3.334L206.615,218.127z"/>
			<path fill="#231F20" d="M234.078,226.416h18.418c5.959,0,8.126,4.389,8.126,8.422c0,3.855-1.75,6.693-5,7.801v0.09
				c2.625,0.398,4.167,3.014,4.334,6.736c0.25,5.896,0.416,7.359,1.417,8.6h-4.668c-0.708-0.887-0.708-2.217-0.917-6.027
				c-0.291-5.674-2.083-7.402-5.75-7.402h-11.543v13.43h-4.417V226.416z M250.83,240.557c4.333,0,5.375-2.793,5.375-5.01
				c0-3.014-1.708-5.053-5.25-5.053h-12.46v10.062H250.83z"/>
			<path fill="#231F20" d="M296.628,248.846h-14.585l-3.792,9.219H273.5l13.46-31.648h5.043l13.46,31.648h-5.043L296.628,248.846z
				 M289.294,230.76l-5.584,14.008h11.293L289.294,230.76z"/>
			<path fill="#231F20" d="M327.925,230.494h-11.251v-4.078h26.92v4.078h-11.252v27.57h-4.417V230.494z"/>
			<path fill="#231F20" d="M358.555,226.416h4.417v31.648h-4.417V226.416z"/>
			<path fill="#231F20" d="M403.686,226.416h4.75l-13.043,31.648h-4.709l-13.251-31.648h5l10.71,26.773L403.686,226.416z"/>
			<path fill="#231F20" d="M422.522,226.416h23.919v4.078h-19.502v9.176h18.919v4.078h-18.919v10.238h19.919v4.078h-24.336V226.416z
				"/>
		</g>
	</g>
</g>
</svg>
